<svg width="67" height="75" viewBox="0 0 67 75" fill="none" xmlns="http://www.w3.org/2000/svg">
<path d="M64.212 27.731C63.8888 27.8853 63.6376 27.9942 63.4585 28.0577L60.5457 21.9574C60.0019 22.2501 59.5904 22.6119 59.3111 23.0429C59.0319 23.474 58.8833 23.9363 58.8654 24.4299C58.8565 24.9192 58.9635 25.3973 59.1864 25.8641C59.4779 26.4746 59.8704 26.9156 60.3638 27.1871C60.8616 27.4676 61.394 27.5552 61.961 27.4498L62.4369 28.4463C61.6329 28.6097 60.8605 28.5044 60.1197 28.1305C59.3922 27.7613 58.8163 27.1323 58.3919 26.2435C58.0618 25.5522 57.9187 24.8599 57.9624 24.1665C58.0152 23.4688 58.2493 22.8278 58.6649 22.2436C59.0937 21.664 59.6897 21.192 60.4528 20.8276C61.2159 20.4633 61.9576 20.2965 62.6779 20.3274C63.3982 20.3583 64.0418 20.5747 64.6085 20.9766C65.1752 21.3785 65.6258 21.9296 65.9601 22.6298C66.2945 23.3301 66.4334 24.0135 66.3767 24.6799C66.3244 25.3554 66.1043 25.9565 65.7165 26.4835C65.342 27.0151 64.8405 27.4309 64.212 27.731ZM63.7824 26.762C64.3343 26.5095 64.7476 26.1744 65.0222 25.7566C65.3011 25.3479 65.445 24.8988 65.4539 24.4095C65.4628 23.9202 65.3557 23.4421 65.1328 22.9752C64.7985 22.275 64.289 21.7851 63.6043 21.5057C62.9197 21.2262 62.156 21.2546 61.3133 21.5909L63.7824 26.762Z" fill="#253745"/>
<path d="M59.054 12.5161C59.7862 13.1294 60.1863 13.8602 60.2542 14.7087C60.3362 15.556 60.0099 16.4182 59.2753 17.2953L56.2091 20.9562L55.4197 20.2951L58.4092 16.7257C58.9778 16.0469 59.2482 15.3909 59.2204 14.7578C59.1927 14.1246 58.8966 13.5717 58.3323 13.099C57.745 12.6071 57.113 12.4088 56.4364 12.5039C55.7598 12.599 55.1117 13.0165 54.492 13.7563L51.6558 17.1427L50.8664 16.4815L53.856 12.9121C54.4245 12.2333 54.6949 11.5774 54.6672 10.9442C54.6394 10.3111 54.3396 9.75495 53.7675 9.27586C53.1803 8.78399 52.5483 8.58563 51.8717 8.68076C51.1951 8.77589 50.5469 9.19336 49.9273 9.93318L47.0911 13.3195L46.2903 12.6488L51.5219 6.40235L52.3228 7.07307L51.4221 8.14847C51.9462 7.92558 52.4743 7.8683 53.0065 7.97661C53.545 8.07731 54.0393 8.31609 54.4893 8.69298C55.0308 9.14652 55.3951 9.67222 55.5821 10.2701C55.7768 10.8744 55.7549 11.5048 55.5163 12.1615C56.0993 11.8063 56.7015 11.6683 57.3229 11.7476C57.9584 11.8256 58.5354 12.0817 59.054 12.5161Z" fill="#253745"/>
<path d="M40.1086 3.67204L39.1196 8.63328C39.0223 9.12111 39.0479 9.47619 39.1963 9.69853C39.3447 9.92086 39.6531 10.0787 40.1214 10.1721L41.0581 10.3588L40.883 11.2369L39.7854 11.0181C39.0634 10.8741 38.5598 10.6013 38.2747 10.1995C37.9916 9.78804 37.9268 9.1969 38.0805 8.42613L39.0696 3.46488L37.9573 3.24315L38.1294 2.37968L39.2417 2.60142L39.6414 0.596436L40.6805 0.803586L40.2808 2.80857L42.476 3.24622L42.3039 4.10968L40.1086 3.67204Z" fill="#253745"/>
<path d="M34.738 1.98873L35.2209 10.1223L34.1782 10.1842L34.0933 8.75416C33.885 9.2748 33.5405 9.68394 33.0599 9.98156C32.5793 10.2792 32.0311 10.4463 31.4153 10.4828C30.4421 10.5406 29.6299 10.2899 28.9788 9.73058C28.3271 9.16134 27.9673 8.30568 27.8995 7.1636L27.6173 2.41156L28.6452 2.35052L28.9203 6.98339C28.9728 7.86727 29.2314 8.52961 29.6961 8.97042C30.1707 9.41065 30.7903 9.60806 31.555 9.56265C32.3396 9.51606 32.9505 9.23063 33.3878 8.70636C33.8251 8.18208 34.0151 7.43829 33.9579 6.47497L33.6952 2.05065L34.738 1.98873Z" fill="#253745"/>
<path d="M22.7867 12.4928C22.0781 12.7839 21.3743 12.8903 20.6752 12.8118C19.9815 12.7204 19.35 12.4529 18.7805 12.0092C18.2164 11.5526 17.7737 10.9332 17.4523 10.1511C17.131 9.36887 17.0168 8.61985 17.1099 7.904C17.1992 7.17895 17.4648 6.54278 17.9068 5.99549C18.345 5.439 18.9184 5.01518 19.627 4.72405C20.3355 4.43292 21.0412 4.33118 21.7441 4.41884C22.4524 4.49351 23.0886 4.75915 23.6526 5.21576C24.2221 5.65938 24.6675 6.27228 24.9889 7.05447C25.3065 7.82745 25.4207 8.57646 25.3314 9.30152C25.2421 10.0266 24.9737 10.6692 24.5263 11.2295C24.0751 11.7806 23.4953 12.2017 22.7867 12.4928ZM22.4407 11.6508C22.9376 11.4466 23.3524 11.1472 23.6849 10.7524C24.0137 10.3484 24.2143 9.86804 24.2867 9.31127C24.3645 8.74152 24.2673 8.12536 23.9951 7.46281C23.7229 6.80025 23.3653 6.29645 22.9223 5.95142C22.4756 5.59717 21.9953 5.39659 21.4812 5.34966C20.9634 5.29353 20.456 5.36755 19.9591 5.57172C19.4622 5.77589 19.0494 6.07996 18.7206 6.48394C18.388 6.87872 18.1874 7.35909 18.1188 7.92506C18.0556 8.47806 18.1601 9.08583 18.4324 9.74838C18.7046 10.4109 19.0595 10.9212 19.497 11.2793C19.9399 11.6243 20.4157 11.8268 20.9243 11.8867C21.4383 11.9336 21.9438 11.855 22.4407 11.6508Z" fill="#253745"/>
<path d="M8.42675 14.5599C8.24792 13.9584 8.24622 13.3384 8.42166 12.6997C8.60449 12.0544 8.98098 11.476 9.55111 10.9643C10.1064 10.466 10.7188 10.1504 11.3882 10.0175C12.051 9.87719 12.7172 9.93435 13.3868 10.189C14.0571 10.4295 14.6714 10.8608 15.2295 11.4827C15.7877 12.1047 16.1535 12.7656 16.327 13.4654C16.5079 14.1585 16.4926 14.834 16.2809 15.4918C16.0766 16.143 15.7005 16.7145 15.1525 17.2062C14.575 17.7244 13.9589 18.0434 13.3043 18.163C12.6505 18.2685 12.0379 18.1966 11.4667 17.9474L12.6627 19.2801L11.8964 19.9679L4.52081 11.7491L5.28715 11.0614L8.42675 14.5599ZM14.441 12.1904C13.9891 11.6869 13.5005 11.3434 12.975 11.16C12.4502 10.9626 11.9312 10.9204 11.4178 11.0336C10.9045 11.1467 10.4331 11.396 10.0036 11.7814C9.58896 12.1535 9.29735 12.5956 9.12875 13.1078C8.96755 13.6134 8.95312 14.141 9.08543 14.6906C9.21775 15.2402 9.50318 15.7594 9.94172 16.2481C10.3803 16.7368 10.8656 17.0765 11.3978 17.2673C11.9299 17.4581 12.456 17.5007 12.976 17.3949C13.5034 17.2825 13.9744 17.0403 14.3891 16.6682C14.8185 16.2828 15.1172 15.841 15.285 15.3429C15.4462 14.8373 15.4569 14.313 15.3172 13.7701C15.1783 13.213 14.8862 12.6865 14.441 12.1904Z" fill="#253745"/>
<path d="M3.13779 26.9285C2.40014 26.5357 1.83185 26.0472 1.4329 25.4628C1.02985 24.865 0.816962 24.2276 0.794241 23.5505C0.767416 22.86 0.929333 22.1854 1.27999 21.5268C1.64468 20.8418 2.116 20.3376 2.69396 20.0142C3.2766 19.682 3.87224 19.537 4.48089 19.5793L2.90022 18.7377L3.39114 17.8156L10.5832 21.6448L10.0923 22.5669L8.49844 21.7183C8.86865 22.2084 9.08296 22.7903 9.14137 23.4638C9.19568 24.1239 9.04049 24.7964 8.67581 25.4814C8.32982 26.1312 7.86289 26.6378 7.27501 27.001C6.6918 27.3555 6.03971 27.5324 5.31873 27.5317C4.60242 27.5223 3.87544 27.3212 3.13779 26.9285ZM6.49625 20.6523C5.91667 20.3437 5.34423 20.1911 4.77891 20.1944C4.2136 20.1977 3.70252 20.3427 3.24567 20.6291C2.7935 20.9069 2.4365 21.2916 2.17467 21.7834C1.9035 22.2927 1.77453 22.8101 1.78778 23.3356C1.80103 23.8611 1.96407 24.3593 2.27691 24.8302C2.58565 25.2876 3.03858 25.6753 3.63573 25.9932C4.22409 26.3065 4.80298 26.4682 5.3724 26.4783C5.93771 26.475 6.44646 26.3345 6.89863 26.0567C7.34202 25.7744 7.6993 25.3785 7.97048 24.8692C8.23231 24.3774 8.3522 23.8664 8.33017 23.3362C8.31282 22.7973 8.14772 22.2923 7.83488 21.8215C7.52205 21.3506 7.07584 20.9609 6.49625 20.6523Z" fill="#253745"/>
<path d="M3.0004 47.3532C3.3236 47.1989 3.57478 47.09 3.75393 47.0265L6.66671 53.1268C7.21047 52.8341 7.62199 52.4723 7.90127 52.0413C8.18055 51.6103 8.32913 51.1479 8.347 50.6543C8.3559 50.165 8.2489 49.6869 8.02599 49.2201C7.7345 48.6096 7.34203 48.1686 6.84857 47.8971C6.35084 47.6166 5.81844 47.529 5.25139 47.6344L4.77557 46.6379C5.57952 46.4745 6.35189 46.5798 7.09267 46.9537C7.82019 47.3229 8.39614 47.9519 8.82052 48.8407C9.15059 49.532 9.29375 50.2243 9.24999 50.9177C9.19726 51.6154 8.96311 52.2564 8.54755 52.8407C8.11872 53.4202 7.52275 53.8922 6.75964 54.2566C5.99654 54.621 5.25482 54.7877 4.5345 54.7568C3.81418 54.7259 3.17065 54.5095 2.60392 54.1076C2.03719 53.7057 1.58665 53.1546 1.25229 52.4544C0.917932 51.7541 0.779061 51.0707 0.835677 50.4043C0.888007 49.7289 1.10808 49.1277 1.49591 48.6007C1.87046 48.0691 2.37196 47.6533 3.0004 47.3532ZM3.43 48.3222C2.87807 48.5747 2.46481 48.9098 2.19022 49.3276C1.91135 49.7363 1.76746 50.1854 1.75856 50.6747C1.74967 51.164 1.85667 51.6421 2.07958 52.109C2.41394 52.8092 2.92344 53.2991 3.6081 53.5785C4.29275 53.858 5.05642 53.8296 5.89912 53.4934L3.43 48.3222Z" fill="#253745"/>
<path d="M8.1584 62.5681C7.42621 61.9548 7.02614 61.224 6.95819 60.3755C6.87622 59.5282 7.20253 58.666 7.93714 57.7889L11.0033 54.128L11.7927 54.7891L8.80318 58.3585C8.23466 59.0373 7.96427 59.6933 7.99199 60.3264C8.01972 60.9596 8.31578 61.5125 8.88018 61.9852C9.46745 62.4771 10.0994 62.6754 10.776 62.5803C11.4526 62.4852 12.1008 62.0677 12.7204 61.3279L15.5566 57.9415L16.346 58.6027L13.3565 62.1721C12.7879 62.8509 12.5175 63.5068 12.5453 64.14C12.573 64.7731 12.8729 65.3293 13.4449 65.8083C14.0322 66.3002 14.6641 66.4986 15.3407 66.4035C16.0174 66.3083 16.6655 65.8908 17.2851 65.151L20.1213 61.7647L20.9222 62.4354L15.6905 68.6819L14.8897 68.0111L15.7903 66.9357C15.2663 67.1586 14.7381 67.2159 14.206 67.1076C13.6674 67.0069 13.1731 66.7681 12.7231 66.3912C12.1816 65.9377 11.8173 65.412 11.6303 64.8141C11.4356 64.2098 11.4576 63.5794 11.6961 62.9227C11.1131 63.2779 10.5109 63.4159 9.88949 63.3367C9.25406 63.2586 8.67703 63.0025 8.1584 62.5681Z" fill="#253745"/>
<path d="M27.1038 71.4122L28.0929 66.4509C28.1901 65.9631 28.1645 65.608 28.0161 65.3857C27.8677 65.1633 27.5593 65.0055 27.091 64.9121L26.1544 64.7254L26.3294 63.8473L27.4271 64.0661C28.149 64.2101 28.6526 64.4829 28.9377 64.8847C29.2209 65.2962 29.2856 65.8873 29.132 66.6581L28.1429 71.6193L29.2551 71.8411L29.083 72.7045L27.9707 72.4828L27.571 74.4878L26.5319 74.2806L26.9317 72.2756L24.7364 71.838L24.9086 70.9745L27.1038 71.4122Z" fill="#253745"/>
<path d="M32.4745 73.0955L31.9915 64.9619L33.0343 64.9L33.1192 66.33C33.3275 65.8094 33.6719 65.4003 34.1525 65.1026C34.6332 64.805 35.1814 64.6379 35.7971 64.6014C36.7703 64.5436 37.5825 64.7943 38.2336 65.3536C38.8853 65.9229 39.2451 66.7785 39.3129 67.9206L39.5951 72.6726L38.5672 72.7337L38.2921 68.1008C38.2396 67.2169 37.981 66.5546 37.5164 66.1138C37.0417 65.6736 36.4221 65.4761 35.6574 65.5216C34.8728 65.5681 34.2619 65.8536 33.8246 66.3778C33.3874 66.9021 33.1973 67.6459 33.2545 68.6092L33.5172 73.0336L32.4745 73.0955Z" fill="#253745"/>
<path d="M44.4257 62.5914C45.1343 62.3003 45.8381 62.1939 46.5372 62.2724C47.2309 62.3638 47.8625 62.6313 48.4319 63.075C48.996 63.5316 49.4387 64.151 49.7601 64.9332C50.0815 65.7153 50.1956 66.4643 50.1025 67.1802C50.0132 67.9053 49.7476 68.5414 49.3056 69.0887C48.8674 69.6452 48.294 70.069 47.5855 70.3602C46.8769 70.6513 46.1712 70.753 45.4683 70.6654C44.76 70.5907 44.1239 70.3251 43.5598 69.8684C42.9903 69.4248 42.5449 68.8119 42.2235 68.0297C41.9059 67.2568 41.7918 66.5077 41.8811 65.7827C41.9704 65.0576 42.2387 64.415 42.6861 63.8547C43.1373 63.3036 43.7172 62.8825 44.4257 62.5914ZM44.7717 63.4334C44.2748 63.6376 43.86 63.937 43.5275 64.3318C43.1987 64.7358 42.9981 65.2162 42.9257 65.7729C42.8479 66.3427 42.9451 66.9588 43.2174 67.6214C43.4896 68.284 43.8472 68.7878 44.2901 69.1328C44.7368 69.487 45.2172 69.6876 45.7312 69.7345C46.249 69.7907 46.7564 69.7167 47.2533 69.5125C47.7502 69.3083 48.1631 69.0042 48.4918 68.6003C48.8244 68.2055 49.025 67.7251 49.0936 67.1591C49.1568 66.6062 49.0523 65.9984 48.7801 65.3358C48.5078 64.6733 48.153 64.163 47.7155 63.805C47.2725 63.4599 46.7968 63.2574 46.2881 63.1975C45.7741 63.1506 45.2686 63.2292 44.7717 63.4334Z" fill="#253745"/>
<path d="M58.7857 60.5243C58.9645 61.1258 58.9662 61.7458 58.7908 62.3845C58.6079 63.0298 58.2314 63.6082 57.6613 64.1199C57.106 64.6182 56.4936 64.9338 55.8242 65.0667C55.1614 65.207 54.4952 65.1499 53.8256 64.8953C53.1553 64.6547 52.541 64.2234 51.9829 63.6015C51.4247 62.9795 51.0589 62.3186 50.8854 61.6188C50.7045 60.9257 50.7199 60.2502 50.9316 59.5924C51.1359 58.9412 51.512 58.3697 52.0599 57.878C52.6374 57.3598 53.2535 57.0408 53.9081 56.9212C54.5619 56.8157 55.1745 56.8876 55.7458 57.1368L54.5497 55.8041L55.3161 55.1163L62.6916 63.3351L61.9253 64.0229L58.7857 60.5243ZM52.7714 62.8938C53.2233 63.3973 53.7119 63.7408 54.2375 63.9242C54.7622 64.1216 55.2812 64.1638 55.7946 64.0506C56.308 63.9375 56.7794 63.6882 57.2088 63.3028C57.6235 62.9307 57.9151 62.4886 58.0837 61.9764C58.2449 61.4708 58.2593 60.9432 58.127 60.3936C57.9947 59.844 57.7092 59.3248 57.2707 58.8361C56.8322 58.3474 56.3468 58.0077 55.8147 57.8169C55.2825 57.6261 54.7564 57.5835 54.2364 57.6893C53.709 57.8017 53.238 58.0439 52.8234 58.416C52.3939 58.8014 52.0953 59.2432 51.9274 59.7413C51.7662 60.2469 51.7555 60.7712 51.8952 61.3142C52.0342 61.8712 52.3263 62.3977 52.7714 62.8938Z" fill="#253745"/>
<path d="M64.0746 48.1557C64.8123 48.5485 65.3806 49.037 65.7795 49.6214C66.1826 50.2192 66.3955 50.8566 66.4182 51.5337C66.445 52.2242 66.2831 52.8988 65.9324 53.5574C65.5677 54.2424 65.0964 54.7466 64.5185 55.07C63.9358 55.4022 63.3402 55.5472 62.7315 55.5049L64.3122 56.3465L63.8213 57.2686L56.6292 53.4394L57.1201 52.5173L58.714 53.3659C58.3438 52.8758 58.1295 52.2939 58.0711 51.6204C58.0167 50.9603 58.1719 50.2878 58.5366 49.6028C58.8826 48.953 59.3495 48.4464 59.9374 48.0832C60.5206 47.7287 61.1727 47.5518 61.8937 47.5525C62.61 47.5619 63.337 47.763 64.0746 48.1557ZM60.7162 54.4319C61.2958 54.7405 61.8682 54.8931 62.4335 54.8898C62.9988 54.8865 63.5099 54.7416 63.9668 54.4551C64.4189 54.1773 64.7759 53.7926 65.0378 53.3008C65.3089 52.7915 65.4379 52.2741 65.4246 51.7486C65.4114 51.2231 65.2484 50.7249 64.9355 50.254C64.6268 49.7966 64.1738 49.4089 63.5767 49.091C62.9883 48.7777 62.4094 48.616 61.84 48.6059C61.2747 48.6092 60.766 48.7497 60.3138 49.0275C59.8704 49.3099 59.5131 49.7057 59.2419 50.215C58.9801 50.7068 58.8602 51.2178 58.8823 51.748C58.8996 52.2869 59.0647 52.7919 59.3775 53.2627C59.6904 53.7336 60.1366 54.1233 60.7162 54.4319Z" fill="#253745"/>
<path d="M54.0291 37.3746C54.0291 47.8773 45.5149 56.3915 35.0122 56.3915C24.5094 56.3915 15.9953 47.8773 15.9953 37.3746C15.9953 26.8718 24.5094 18.3577 35.0122 18.3577C45.5149 18.3577 54.0291 26.8718 54.0291 37.3746Z" fill="url(#paint0_linear_718_3)"/>
<defs>
<linearGradient id="paint0_linear_718_3" x1="35.0122" y1="18.3577" x2="35.0122" y2="49.8789" gradientUnits="userSpaceOnUse">
<stop stop-color="#253745"/>
<stop offset="1" stop-color="#9BA8AB" stop-opacity="0"/>
</linearGradient>
</defs>
</svg>
