<svg width="52" height="52" viewBox="0 0 52 52" fill="none" xmlns="http://www.w3.org/2000/svg"><g clip-path="url(#clip0_5_53)"><path shape-rendering="auto"
    d="M52 26C52 40.3594 40.3594 52 26 52C11.6406 52 0 40.3594 0 26C0 11.6406 11.6406 0 26 0C40.3594 0 52 11.6406 52 26Z"
    fill="#CCD0CF" /><g filter="url(#filter0_i_5_53)"><mask id="mask0_5_53" style="mask-type:alpha" maskUnits="userSpaceOnUse" x="0" y="0"
        width="52" height="52"><circle cx="26" cy="26" r="26" fill="#CFEFE7" /></mask><g mask="url(#mask0_5_53)"><path shape-rendering="auto"
            d="M-9.37988 20.0529L-15.7219 24.8702C-20.2159 28.2837 -22.855 33.6025 -22.855 39.2459C-22.855 49.2161 -14.7726 57.2985 -4.80241 57.2985H66.8936C76.8638 57.2985 84.9462 49.2161 84.9462 39.2459C84.9462 33.6025 82.3071 28.2837 77.8131 24.8702L71.4711 20.0529C63.5062 14.0029 52.4856 14.0029 44.5207 20.0529C36.5559 26.1028 25.5353 26.1028 17.5704 20.0529C9.60558 14.0029 -1.41503 14.0029 -9.37988 20.0529Z"
            fill="#9BA8AB" /></g></g><g filter="url(#filter1_i_5_53)"><mask id="mask1_5_53" style="mask-type:alpha" maskUnits="userSpaceOnUse" x="0" y="0"
        width="52" height="52"><circle cx="26" cy="26" r="26" fill="#CFEFE7" /></mask><g mask="url(#mask1_5_53)"><path shape-rendering="auto"
            d="M-7.17456 30.0352L-13.5166 34.8524C-18.0106 38.266 -20.6497 43.5847 -20.6497 49.2282C-20.6497 59.1984 -12.5673 67.2808 -2.59709 67.2808H69.0989C79.0691 67.2808 87.1515 59.1984 87.1515 49.2282C87.1515 43.5847 84.5124 38.266 80.0184 34.8524L73.6764 30.0352C65.7115 23.9852 54.6909 23.9852 46.7261 30.0352C38.7612 36.0851 27.7406 36.0851 19.7758 30.0352C11.8109 23.9852 0.790295 23.9852 -7.17456 30.0352Z"
            fill="#4A5C6A" /></g></g><g filter="url(#filter2_i_5_53)"><mask id="mask2_5_53" style="mask-type:alpha" maskUnits="userSpaceOnUse" x="0" y="0"
        width="52" height="52"><circle cx="26" cy="26" r="26" fill="#CFEFE7" /></mask><g mask="url(#mask2_5_53)"><path shape-rendering="auto"
            d="M-7.71557 38.4949L-14.0576 43.3122C-18.5516 46.7257 -21.1907 52.0445 -21.1907 57.6879C-21.1907 67.6581 -13.1083 75.7406 -3.1381 75.7406H68.5579C78.5281 75.7406 86.6105 67.6581 86.6105 57.6879C86.6105 52.0445 83.9714 46.7257 79.4774 43.3122L73.1354 38.4949C65.1705 32.445 54.1499 32.445 46.1851 38.4949C38.2202 44.5448 27.1996 44.5448 19.2347 38.4949C11.2699 32.445 0.249279 32.445 -7.71557 38.4949Z"
            fill="#253745" /></g></g></g><defs><filter id="filter0_i_5_53" x="0" y="15.5154" width="52" height="37.4846"
    filterUnits="userSpaceOnUse" color-interpolation-filters="sRGB"><feFlood flood-opacity="0" result="BackgroundImageFix" /><feBlend mode="normal" in="SourceGraphic" in2="BackgroundImageFix" result="shape" /><feColorMatrix in="SourceAlpha" type="matrix"
        values="0 0 0 0 0 0 0 0 0 0 0 0 0 0 0 0 0 0 127 0" result="hardAlpha" /><feOffset dy="1" /><feGaussianBlur stdDeviation="2.5" /><feComposite in2="hardAlpha" operator="arithmetic" k2="-1" k3="1" /><feColorMatrix type="matrix" values="0 0 0 0 0 0 0 0 0 0 0 0 0 0 0 0 0 0 0.8 0" /><feBlend mode="normal" in2="shape" result="effect1_innerShadow_5_53" /></filter><filter id="filter1_i_5_53" x="0" y="25.4977" width="52" height="27.5023"
    filterUnits="userSpaceOnUse" color-interpolation-filters="sRGB"><feFlood flood-opacity="0" result="BackgroundImageFix" /><feBlend mode="normal" in="SourceGraphic" in2="BackgroundImageFix" result="shape" /><feColorMatrix in="SourceAlpha" type="matrix"
        values="0 0 0 0 0 0 0 0 0 0 0 0 0 0 0 0 0 0 127 0" result="hardAlpha" /><feOffset dy="1" /><feGaussianBlur stdDeviation="2.5" /><feComposite in2="hardAlpha" operator="arithmetic" k2="-1" k3="1" /><feColorMatrix type="matrix" values="0 0 0 0 0 0 0 0 0 0 0 0 0 0 0 0 0 0 0.8 0" /><feBlend mode="normal" in2="shape" result="effect1_innerShadow_5_53" /></filter><filter id="filter2_i_5_53" x="0" y="33.9575" width="52" height="19.0425"
    filterUnits="userSpaceOnUse" color-interpolation-filters="sRGB"><feFlood flood-opacity="0" result="BackgroundImageFix" /><feBlend mode="normal" in="SourceGraphic" in2="BackgroundImageFix" result="shape" /><feColorMatrix in="SourceAlpha" type="matrix"
        values="0 0 0 0 0 0 0 0 0 0 0 0 0 0 0 0 0 0 127 0" result="hardAlpha" /><feOffset dy="1" /><feGaussianBlur stdDeviation="2.5" /><feComposite in2="hardAlpha" operator="arithmetic" k2="-1" k3="1" /><feColorMatrix type="matrix" values="0 0 0 0 0 0 0 0 0 0 0 0 0 0 0 0 0 0 0.8 0" /><feBlend mode="normal" in2="shape" result="effect1_innerShadow_5_53" /></filter><clipPath id="clip0_5_53"><rect width="52" height="52" fill="white" /></clipPath></defs></svg>